<?xml version="1.0" encoding="UTF-8" standalone="no"?>
<!-- Created with Inkscape (http://www.inkscape.org/) -->

<svg
   xmlns:dc="http://purl.org/dc/elements/1.1/"
   xmlns:cc="http://creativecommons.org/ns#"
   xmlns:rdf="http://www.w3.org/1999/02/22-rdf-syntax-ns#"
   xmlns:svg="http://www.w3.org/2000/svg"
   xmlns="http://www.w3.org/2000/svg"
   xmlns:sodipodi="http://sodipodi.sourceforge.net/DTD/sodipodi-0.dtd"
   xmlns:inkscape="http://www.inkscape.org/namespaces/inkscape"
   width="3.96875mm"
   height="5.1094499mm"
   viewBox="0 0 3.9687499 5.1094498"
   version="1.1"
   id="svg10529"
   inkscape:version="0.92.4 (5da689c313, 2019-01-14)"
   sodipodi:docname="dia-diem.svg">
  <defs
     id="defs10523" />
  <sodipodi:namedview
     id="base"
     pagecolor="#ffffff"
     bordercolor="#666666"
     borderopacity="1.0"
     inkscape:pageopacity="0.0"
     inkscape:pageshadow="2"
     inkscape:zoom="3.959798"
     inkscape:cx="1.9943576"
     inkscape:cy="44.93989"
     inkscape:document-units="mm"
     inkscape:current-layer="layer1"
     showgrid="false"
     inkscape:pagecheckerboard="true"
     fit-margin-top="0"
     fit-margin-left="0"
     fit-margin-right="0"
     fit-margin-bottom="0"
     inkscape:window-width="1366"
     inkscape:window-height="743"
     inkscape:window-x="0"
     inkscape:window-y="25"
     inkscape:window-maximized="1" />
  <metadata
     id="metadata10526">
    <rdf:RDF>
      <cc:Work
         rdf:about="">
        <dc:format>image/svg+xml</dc:format>
        <dc:type
           rdf:resource="http://purl.org/dc/dcmitype/StillImage" />
        <dc:title></dc:title>
      </cc:Work>
    </rdf:RDF>
  </metadata>
  <g
     inkscape:label="Layer 1"
     inkscape:groupmode="layer"
     id="layer1"
     transform="translate(-103.90199,-205.80802)">
    <path
       inkscape:connector-curvature="0"
       id="path2092"
       d="m 105.88637,205.80802 c -1.09594,0 -1.98436,0.88843 -1.98438,1.98438 0,1.58896 1.79379,3.06057 1.79379,3.06057 0.10482,0.086 0.27636,0.086 0.38117,0 0,0 1.79379,-1.47161 1.79379,-3.06057 0,-1.09595 -0.88844,-1.98438 -1.98437,-1.98438 z m 0,0.98603 c 0.55048,0 0.99834,0.44786 0.99834,0.99835 0,0.55048 -0.44784,0.99836 -0.99834,0.99836 -0.5505,0 -0.99835,-0.44786 -0.99835,-0.99834 0,-0.55049 0.44787,-0.99837 0.99835,-0.99837 z"
       style="display:inline;fill:#a2e0e4;fill-opacity:1;stroke-width:0.00997937" />
  </g>
</svg>
