<?xml version="1.0" encoding="UTF-8" standalone="no"?>
<!-- Created with Inkscape (http://www.inkscape.org/) -->

<svg
   xmlns:dc="http://purl.org/dc/elements/1.1/"
   xmlns:cc="http://creativecommons.org/ns#"
   xmlns:rdf="http://www.w3.org/1999/02/22-rdf-syntax-ns#"
   xmlns:svg="http://www.w3.org/2000/svg"
   xmlns="http://www.w3.org/2000/svg"
   xmlns:sodipodi="http://sodipodi.sourceforge.net/DTD/sodipodi-0.dtd"
   xmlns:inkscape="http://www.inkscape.org/namespaces/inkscape"
   width="19.31131"
   height="19.31131"
   viewBox="0 0 5.1094506 5.1094508"
   version="1.1"
   id="svg10529"
   inkscape:version="0.92.4 (5da689c313, 2019-01-14)"
   sodipodi:docname="footer-skype-sang.svg">
  <defs
     id="defs10523" />
  <sodipodi:namedview
     id="base"
     pagecolor="#ffffff"
     bordercolor="#666666"
     borderopacity="1.0"
     inkscape:pageopacity="0.0"
     inkscape:pageshadow="2"
     inkscape:zoom="5.2818877"
     inkscape:cx="-69.08785"
     inkscape:cy="26.673851"
     inkscape:document-units="px"
     inkscape:current-layer="layer1"
     showgrid="false"
     inkscape:pagecheckerboard="true"
     fit-margin-top="0"
     fit-margin-left="0"
     fit-margin-right="0"
     fit-margin-bottom="0"
     inkscape:window-width="1366"
     inkscape:window-height="743"
     inkscape:window-x="0"
     inkscape:window-y="25"
     inkscape:window-maximized="1"
     units="px" />
  <metadata
     id="metadata10526">
    <rdf:RDF>
      <cc:Work
         rdf:about="">
        <dc:format>image/svg+xml</dc:format>
        <dc:type
           rdf:resource="http://purl.org/dc/dcmitype/StillImage" />
        <dc:title></dc:title>
      </cc:Work>
    </rdf:RDF>
  </metadata>
  <g
     inkscape:label="Layer 1"
     inkscape:groupmode="layer"
     id="layer1"
     transform="translate(-103.90199,-205.80802)">
    <path
       inkscape:connector-curvature="0"
       id="path2920"
       d="m 105.45627,206.07986 c -0.45375,0.003 -0.87195,0.2462 -1.09881,0.63917 -0.22689,0.39294 -0.22847,0.8764 -0.004,1.27073 -0.12523,0.68824 0.0941,1.39438 0.58742,1.89038 0.49331,0.49603 1.19816,0.71937 1.88709,0.59785 0.19134,0.11021 0.40838,0.16803 0.62918,0.16764 0.45351,-0.003 0.87152,-0.24598 1.09834,-0.6387 0.22683,-0.39272 0.22866,-0.87643 0.005,-1.2707 H 108.56 c 0.0217,-0.12412 0.0323,-0.24965 0.0323,-0.37563 0.003,-0.63281 -0.27549,-1.23461 -0.75929,-1.64253 -0.48382,-0.40791 -1.12374,-0.58014 -1.74701,-0.47059 -0.19157,-0.11028 -0.4086,-0.16812 -0.62966,-0.16762 z m 0.96064,0.90935 c 0.46679,0 1.0214,0.25762 1.0214,0.60641 0,0.15032 -0.1253,0.23077 -0.27113,0.23077 -0.27736,0 -0.23099,-0.38938 -0.78873,-0.38938 -0.27736,0 -0.42311,0.13007 -0.42311,0.31197 0,0.18191 0.21563,0.24357 0.40507,0.28493 l 0.49907,0.11254 c 0.54721,0.12329 0.69282,0.44426 0.69282,0.7517 0,0.47259 -0.36547,0.83779 -1.08649,0.83813 -0.75841,0 -1.10546,-0.38618 -1.10546,-0.66957 -1.9e-4,-0.0676 0.0279,-0.1325 0.0769,-0.17902 0.0491,-0.0465 0.11526,-0.0707 0.1828,-0.067 0.32472,0 0.23989,0.48721 0.84572,0.48721 0.3097,0 0.49148,-0.18622 0.49148,-0.36137 0,-0.10522 -0.0606,-0.22535 -0.26496,-0.27351 l -0.67621,-0.17095 c -0.54346,-0.13831 -0.63821,-0.44047 -0.63821,-0.72084 0,-0.58178 0.53237,-0.79206 1.039,-0.79206 z"
       style="display:inline;fill:#a2e0e4;fill-opacity:1;fill-rule:nonzero;stroke:none;stroke-width:0.07516702" />
  </g>
</svg>
