<?xml version="1.0" encoding="UTF-8" standalone="no"?>
<!-- Created with Inkscape (http://www.inkscape.org/) -->

<svg
   xmlns:dc="http://purl.org/dc/elements/1.1/"
   xmlns:cc="http://creativecommons.org/ns#"
   xmlns:rdf="http://www.w3.org/1999/02/22-rdf-syntax-ns#"
   xmlns:svg="http://www.w3.org/2000/svg"
   xmlns="http://www.w3.org/2000/svg"
   xmlns:sodipodi="http://sodipodi.sourceforge.net/DTD/sodipodi-0.dtd"
   xmlns:inkscape="http://www.inkscape.org/namespaces/inkscape"
   width="93.502022mm"
   height="106.02679mm"
   viewBox="0 0 93.502022 106.02679"
   version="1.1"
   id="svg1164"
   sodipodi:docname="logo trang doc.svg"
   inkscape:export-filename="D:\STUDIO\projects\Web\Sem2\logo &amp; color\logo xanh doc.png"
   inkscape:export-xdpi="958.24841"
   inkscape:export-ydpi="958.24841"
   inkscape:version="0.92.4 (5da689c313, 2019-01-14)">
  <defs
     id="defs1158" />
  <sodipodi:namedview
     id="base"
     pagecolor="#ffffff"
     bordercolor="#666666"
     borderopacity="1.0"
     inkscape:pageopacity="0.0"
     inkscape:pageshadow="2"
     inkscape:zoom="0.7"
     inkscape:cx="221.88423"
     inkscape:cy="265.8814"
     inkscape:document-units="mm"
     inkscape:current-layer="layer1"
     showgrid="false"
     inkscape:pagecheckerboard="true"
     fit-margin-top="0"
     fit-margin-left="0"
     fit-margin-right="0"
     fit-margin-bottom="0"
     inkscape:window-width="1366"
     inkscape:window-height="745"
     inkscape:window-x="-8"
     inkscape:window-y="-8"
     inkscape:window-maximized="1" />
  <metadata
     id="metadata1161">
    <rdf:RDF>
      <cc:Work
         rdf:about="">
        <dc:format>image/svg+xml</dc:format>
        <dc:type
           rdf:resource="http://purl.org/dc/dcmitype/StillImage" />
        <dc:title></dc:title>
      </cc:Work>
    </rdf:RDF>
  </metadata>
  <g
     inkscape:label="Layer 1"
     inkscape:groupmode="layer"
     id="layer1"
     transform="translate(-35.647799,-112.45089)">
    <g
       style="fill:#ffffff;fill-opacity:1"
       id="g5216"
       transform="matrix(1.0000594,0,0,0.99999998,10.080245,53.575896)">
      <path
         style="color:#000000;font-style:normal;font-variant:normal;font-weight:normal;font-stretch:normal;font-size:medium;line-height:normal;font-family:sans-serif;font-variant-ligatures:normal;font-variant-position:normal;font-variant-caps:normal;font-variant-numeric:normal;font-variant-alternates:normal;font-feature-settings:normal;text-indent:0;text-align:start;text-decoration:none;text-decoration-line:none;text-decoration-style:solid;text-decoration-color:#000000;letter-spacing:normal;word-spacing:normal;text-transform:none;writing-mode:lr-tb;direction:ltr;text-orientation:mixed;dominant-baseline:auto;baseline-shift:baseline;text-anchor:start;white-space:normal;shape-padding:0;clip-rule:nonzero;display:inline;overflow:visible;visibility:visible;opacity:1;isolation:auto;mix-blend-mode:normal;color-interpolation:sRGB;color-interpolation-filters:linearRGB;solid-color:#000000;solid-opacity:1;vector-effect:none;fill:#ffffff;fill-opacity:1;fill-rule:nonzero;stroke:none;stroke-width:50;stroke-linecap:butt;stroke-linejoin:miter;stroke-miterlimit:4;stroke-dasharray:none;stroke-dashoffset:0;stroke-opacity:1;color-rendering:auto;image-rendering:auto;shape-rendering:auto;text-rendering:auto;enable-background:accumulate"
         d="m 212.5,100 c -6.925,0 -12.5,5.575 -12.5,12.5 v 25 c 0,6.925 5.575,12.5 12.5,12.5 h 37.50195 v 149.99805 c 0,20.29493 -12.12105,38.4288 -30.87109,46.19531 -18.75004,7.76655 -40.1337,3.51474 -54.48438,-10.83594 C 150.29583,321.00678 146.04207,299.61329 153.80859,280.86328 161.57512,262.1132 179.70314,250 199.99805,250 v -49.99805 c -40.37443,0 -76.93414,24.4274 -92.38477,61.72852 -15.450638,37.3011 -6.87522,80.42948 21.67383,108.97851 28.54903,28.54901 71.6774,37.13032 108.97851,21.67969 C 275.56675,376.93808 299.99998,340.37247 300,299.99805 V 125.00195 H 274.51172 V 125 H 300 V 112.5 C 300,105.575 294.425,100 287.5,100 H 275 Z M 200,200 v 50 h 12.5 c 6.925,0 12.5,-5.575 12.5,-12.5 v -25 c 0,-6.925 -5.575,-12.5 -12.5,-12.5 z"
         transform="matrix(0.26458334,0,0,0.26458334,0,32.416664)"
         id="path5212"
         inkscape:connector-curvature="0" />
      <path
         style="color:#000000;font-style:normal;font-variant:normal;font-weight:normal;font-stretch:normal;font-size:medium;line-height:normal;font-family:sans-serif;font-variant-ligatures:normal;font-variant-position:normal;font-variant-caps:normal;font-variant-numeric:normal;font-variant-alternates:normal;font-feature-settings:normal;text-indent:0;text-align:start;text-decoration:none;text-decoration-line:none;text-decoration-style:solid;text-decoration-color:#000000;letter-spacing:normal;word-spacing:normal;text-transform:none;writing-mode:lr-tb;direction:ltr;text-orientation:mixed;dominant-baseline:auto;baseline-shift:baseline;text-anchor:start;white-space:normal;shape-padding:0;clip-rule:nonzero;display:inline;overflow:visible;visibility:visible;opacity:1;isolation:auto;mix-blend-mode:normal;color-interpolation:sRGB;color-interpolation-filters:linearRGB;solid-color:#000000;solid-opacity:1;vector-effect:none;fill:#ffffff;fill-opacity:1;fill-rule:nonzero;stroke:none;stroke-width:50;stroke-linecap:butt;stroke-linejoin:miter;stroke-miterlimit:4;stroke-dasharray:none;stroke-dashoffset:0;stroke-opacity:1;color-rendering:auto;image-rendering:auto;shape-rendering:auto;text-rendering:auto;enable-background:accumulate"
         d="m 337.5,200 c -6.925,0 -12.5,5.575 -12.5,12.5 v 25 c 0,6.925 5.575,12.5 12.5,12.5 H 349.99805 350 c 27.90943,0.001 50.00195,22.08833 50.00195,49.99805 v 75 H 450 v -75 c 0,-54.93172 -45.0685,-99.99503 -100,-99.9961 V 200 Z M 400,375 v 12.5 c 0,6.925 5.575,12.5 12.5,12.5 h 25 c 6.925,0 12.5,-5.57504 12.5,-12.5 V 375 Z"
         transform="matrix(0.26458334,0,0,0.26458334,0,32.416664)"
         id="path5214"
         inkscape:connector-curvature="0" />
    </g>
    <g
       aria-label="ĐÔ HOA"
       style="font-style:normal;font-weight:normal;font-size:18.89808273px;line-height:1.25;font-family:sans-serif;letter-spacing:0px;word-spacing:0px;fill:#ffffff;fill-opacity:1;stroke:none;stroke-width:0.14173563"
       id="text926">
      <path
         d="m 36.536009,212.22241 h -0.548044 q -0.151185,0 -0.245675,-0.0945 -0.09449,-0.11339 -0.09449,-0.26457 v -0.24568 q 0,-0.15118 0.09449,-0.24567 0.09449,-0.11339 0.245675,-0.11339 h 0.548044 v -5.83951 q 0,-0.15118 0.09449,-0.24567 0.09449,-0.11339 0.245675,-0.11339 h 4.478845 q 1.360662,0 2.57014,0.52914 1.209477,0.51025 2.116585,1.41736 0.907108,0.88821 1.417356,2.09769 0.529146,1.19058 0.529146,2.55124 0,1.37956 -0.529146,2.58904 -0.510248,1.20947 -1.417356,2.11658 -0.907108,0.88821 -2.116585,1.41736 -1.209478,0.51025 -2.57014,0.51025 h -4.478845 q -0.151185,0 -0.245675,-0.0945 -0.09449,-0.11339 -0.09449,-0.26458 z m 4.592234,3.76072 q 0.926006,0 1.700828,-0.32127 0.774821,-0.34016 1.341764,-0.90711 0.566942,-0.58584 0.88821,-1.37956 0.321267,-0.79371 0.321267,-1.71972 0,-0.92601 -0.321267,-1.70083 -0.321268,-0.79372 -0.88821,-1.36066 -0.566943,-0.58584 -1.341764,-0.90711 -0.774822,-0.34016 -1.700828,-0.34016 h -2.154381 v 3.9119 h 3.118184 q 0.151184,0 0.245675,0.11339 0.113388,0.0945 0.113388,0.24567 v 0.26458 q 0,0.15118 -0.113388,0.24567 -0.09449,0.0945 -0.245675,0.0945 h -3.118184 v 3.76072 z"
         style="font-style:normal;font-variant:normal;font-weight:normal;font-stretch:normal;font-family:'iCiel Brandon Text';-inkscape-font-specification:'iCiel Brandon Text';letter-spacing:3.73327065px;fill:#ffffff;fill-opacity:1;stroke-width:0.14173563"
         id="path1736" />
      <path
         d="m 53.372737,211.69327 q 0,-1.41736 0.529147,-2.66463 0.529146,-1.24728 1.436254,-2.15439 0.926006,-0.926 2.154381,-1.45515 1.247274,-0.54804 2.66463,-0.54804 1.417356,0 2.645732,0.54804 1.247273,0.52915 2.173279,1.45515 0.926006,0.90711 1.455152,2.15439 0.529147,1.24727 0.529147,2.66463 0,1.41735 -0.529147,2.66463 -0.529146,1.22837 -1.455152,2.15438 -0.926006,0.9071 -2.173279,1.43625 -1.228376,0.52915 -2.645732,0.52915 -1.417356,0 -2.66463,-0.52915 -1.228375,-0.52915 -2.154381,-1.43625 -0.907108,-0.92601 -1.436254,-2.15438 -0.529147,-1.24728 -0.529147,-2.66463 z m 2.456751,0 q 0,0.88821 0.340166,1.68192 0.340165,0.79372 0.926006,1.37956 0.58584,0.58585 1.37956,0.92601 0.793719,0.34017 1.681929,0.34017 0.88821,0 1.681929,-0.34017 0.79372,-0.34016 1.37956,-0.92601 0.604739,-0.58584 0.944904,-1.37956 0.340166,-0.79371 0.340166,-1.68192 0,-0.88821 -0.340166,-1.68193 -0.340165,-0.79372 -0.944904,-1.37956 -0.58584,-0.60474 -1.37956,-0.94491 -0.793719,-0.35906 -1.681929,-0.35906 -0.88821,0 -1.681929,0.35906 -0.79372,0.34017 -1.37956,0.94491 -0.585841,0.58584 -0.926006,1.37956 -0.340166,0.79372 -0.340166,1.68193 z m 2.003197,-8.06949 q -0.113389,-0.15118 -0.05669,-0.30237 0.07559,-0.15118 0.18898,-0.20787 l 1.946503,-1.51185 q 0.245675,-0.20788 0.510248,-0.0189 l 1.946503,1.53075 q 0.113388,0.0567 0.170082,0.20787 0.07559,0.15119 -0.0378,0.30237 l -0.39686,0.54805 q -0.113388,0.13229 -0.245675,0.17008 -0.113388,0.0189 -0.302369,-0.0756 l -1.37956,-0.88821 -1.398458,0.88821 q -0.188981,0.0945 -0.321267,0.0756 -0.113389,-0.0378 -0.226777,-0.17008 z"
         style="font-style:normal;font-variant:normal;font-weight:normal;font-stretch:normal;font-family:'iCiel Brandon Text';-inkscape-font-specification:'iCiel Brandon Text';letter-spacing:3.73327065px;fill:#ffffff;fill-opacity:1;stroke-width:0.14173563"
         id="path1738" />
      <path
         d="m 81.398032,205.4191 q 0,-0.15118 0.09449,-0.24567 0.113389,-0.11339 0.264573,-0.11339 h 1.757522 q 0.151185,0 0.245675,0.11339 0.113389,0.0945 0.113389,0.24567 v 5.00799 h 6.160774 v -5.00799 q 0,-0.15118 0.09449,-0.24567 0.113388,-0.11339 0.264573,-0.11339 h 1.738624 q 0.151184,0 0.245675,0.11339 0.113388,0.0945 0.113388,0.24567 v 12.51053 q 0,0.15119 -0.113388,0.26458 -0.09449,0.0945 -0.245675,0.0945 h -1.738624 q -0.151185,0 -0.264573,-0.0945 -0.09449,-0.11339 -0.09449,-0.26458 v -5.21587 h -6.160774 v 5.21587 q 0,0.15119 -0.113389,0.26458 -0.09449,0.0945 -0.245675,0.0945 h -1.757522 q -0.151184,0 -0.264573,-0.0945 -0.09449,-0.11339 -0.09449,-0.26458 z"
         style="font-style:normal;font-variant:normal;font-weight:normal;font-stretch:normal;font-family:'iCiel Brandon Text';-inkscape-font-specification:'iCiel Brandon Text';letter-spacing:3.73327065px;fill:#ffffff;fill-opacity:1;stroke-width:0.14173563"
         id="path1740" />
      <path
         d="m 98.677684,211.69327 q 0,-1.41736 0.529146,-2.66463 0.529147,-1.24728 1.43625,-2.15439 0.92601,-0.926 2.15439,-1.45515 1.24727,-0.54804 2.66463,-0.54804 1.41735,0 2.64573,0.54804 1.24727,0.52915 2.17328,1.45515 0.926,0.90711 1.45515,2.15439 0.52915,1.24727 0.52915,2.66463 0,1.41735 -0.52915,2.66463 -0.52915,1.22837 -1.45515,2.15438 -0.92601,0.9071 -2.17328,1.43625 -1.22838,0.52915 -2.64573,0.52915 -1.41736,0 -2.66463,-0.52915 -1.22838,-0.52915 -2.15439,-1.43625 -0.907103,-0.92601 -1.43625,-2.15438 -0.529146,-1.24728 -0.529146,-2.66463 z m 2.456746,0 q 0,0.88821 0.34017,1.68192 0.34017,0.79372 0.92601,1.37956 0.58584,0.58585 1.37956,0.92601 0.79372,0.34017 1.68193,0.34017 0.88821,0 1.68193,-0.34017 0.79371,-0.34016 1.37956,-0.92601 0.60473,-0.58584 0.9449,-1.37956 0.34016,-0.79371 0.34016,-1.68192 0,-0.88821 -0.34016,-1.68193 -0.34017,-0.79372 -0.9449,-1.37956 -0.58585,-0.60474 -1.37956,-0.94491 -0.79372,-0.35906 -1.68193,-0.35906 -0.88821,0 -1.68193,0.35906 -0.79372,0.34017 -1.37956,0.94491 -0.58584,0.58584 -0.92601,1.37956 -0.34017,0.79372 -0.34017,1.68193 z"
         style="font-style:normal;font-variant:normal;font-weight:normal;font-stretch:normal;font-family:'iCiel Brandon Text';-inkscape-font-specification:'iCiel Brandon Text';letter-spacing:3.73327065px;fill:#ffffff;fill-opacity:1;stroke-width:0.14173563"
         id="path1742" />
      <path
         d="m 116.88718,218.2887 q -0.20788,0 -0.32127,-0.15119 -0.0945,-0.15118 0,-0.34016 l 5.8773,-12.71841 q 0.0945,-0.20788 0.32127,-0.20788 h 0.18898 q 0.15119,0 0.20788,0.0567 0.0756,0.0567 0.11339,0.15119 l 5.82061,12.71841 q 0.0945,0.18898 -0.0189,0.34016 -0.0945,0.15119 -0.30237,0.15119 h -1.64413 q -0.20788,0 -0.34017,-0.0756 -0.11339,-0.0945 -0.20788,-0.30237 l -0.926,-2.04099 h -5.65053 l -0.926,2.04099 q -0.0567,0.15119 -0.18899,0.26458 -0.13228,0.11339 -0.35906,0.11339 z m 7.8427,-4.51665 -1.88981,-4.15757 h -0.0567 l -1.85201,4.15757 z"
         style="font-style:normal;font-variant:normal;font-weight:normal;font-stretch:normal;font-family:'iCiel Brandon Text';-inkscape-font-specification:'iCiel Brandon Text';letter-spacing:3.73327065px;fill:#ffffff;fill-opacity:1;stroke-width:0.14173563"
         id="path1744" />
    </g>
  </g>
</svg>
