<?xml version="1.0" encoding="UTF-8" standalone="no"?>
<svg
   xmlns:dc="http://purl.org/dc/elements/1.1/"
   xmlns:cc="http://creativecommons.org/ns#"
   xmlns:rdf="http://www.w3.org/1999/02/22-rdf-syntax-ns#"
   xmlns:svg="http://www.w3.org/2000/svg"
   xmlns="http://www.w3.org/2000/svg"
   viewBox="0 0 1149.9937 300"
   height="300"
   width="1149.9937"
   xml:space="preserve"
   id="svg2"
   version="1.1"><metadata
     id="metadata8"><rdf:RDF><cc:Work
         rdf:about=""><dc:format>image/svg+xml</dc:format><dc:type
           rdf:resource="http://purl.org/dc/dcmitype/StillImage" /><dc:title></dc:title></cc:Work></rdf:RDF></metadata><defs
     id="defs6" /><g
     transform="matrix(1.3333333,0,0,1.3333333,0,7.5e-6)"
     id="g10"><g
       id="g12"><path
         id="path14"
         style="fill:#c9d4f9;fill-opacity:1;fill-rule:nonzero;stroke:none"
         d="m 84.363,0 c -5.191,0 -9.375,4.18 -9.375,9.375 v 18.75 c 0,5.195 4.184,9.375 9.375,9.375 h 28.129 V 150 c 0,15.219 -9.09,28.82 -23.156,34.645 -14.063,5.824 -30.102,2.636 -40.863,-8.125 C 37.707,165.754 34.52,149.711 40.344,135.648 46.168,121.586 59.766,112.5 74.988,112.5 V 75 c -30.285,0 -57.703,18.32 -69.293,46.297 -11.59,27.976 -5.156,60.324 16.254,81.734 21.414,21.414 53.762,27.848 81.742,16.262 27.977,-11.59 46.301,-39.012 46.301,-69.293 V 18.75 h -19.117 19.117 V 9.375 C 149.992,4.18 145.812,0 140.617,0 Z m -9.375,75 v 37.5 h 9.375 c 5.196,0 9.375,-4.18 9.375,-9.375 V 84.375 C 93.738,79.18 89.559,75 84.363,75 Z" /><path
         id="path16"
         style="fill:#c9d4f9;fill-opacity:1;fill-rule:nonzero;stroke:none"
         d="m 178.121,75 c -5.195,0 -9.375,4.18 -9.375,9.375 v 18.75 c 0,5.195 4.18,9.375 9.375,9.375 h 9.375 C 208.43,112.5 225,129.066 225,150 v 56.25 h 37.5 V 150 c 0,-41.199 -33.805,-74.996 -75.004,-75 z m 46.875,131.25 v 9.375 c 0,5.195 4.184,9.375 9.379,9.375 h 18.75 c 5.195,0 9.375,-4.18 9.375,-9.375 v -9.375 z" /><path
         id="path18"
         style="fill:#c9d4f9;fill-opacity:1;fill-rule:nonzero;stroke:none"
         d="m 337.484,115.617 h -3.105 c -0.57,0 -1.035,-0.179 -1.395,-0.535 -0.355,-0.43 -0.535,-0.93 -0.535,-1.5 v -1.394 c 0,-0.571 0.18,-1.036 0.535,-1.395 0.36,-0.426 0.825,-0.641 1.395,-0.641 h 3.105 V 77.043 c 0,-0.57 0.18,-1.035 0.536,-1.391 0.359,-0.429 0.824,-0.644 1.394,-0.644 h 25.395 c 5.14,0 10,1 14.57,3 4.57,1.93 8.57,4.609 12,8.035 3.43,3.359 6.105,7.324 8.035,11.895 2,4.5 3,9.32 3,14.464 0,5.215 -1,10.106 -3,14.68 -1.93,4.57 -4.605,8.57 -8.035,12 -3.43,3.356 -7.43,6.035 -12,8.035 -4.57,1.926 -9.43,2.891 -14.57,2.891 h -25.395 c -0.57,0 -1.035,-0.176 -1.394,-0.535 -0.356,-0.43 -0.536,-0.93 -0.536,-1.5 z m 26.036,21.321 c 3.5,0 6.714,-0.606 9.644,-1.821 2.93,-1.285 5.465,-3 7.606,-5.144 2.144,-2.215 3.824,-4.821 5.039,-7.821 1.211,-3 1.82,-6.25 1.82,-9.75 0,-3.5 -0.609,-6.714 -1.82,-9.644 -1.215,-3 -2.895,-5.57 -5.039,-7.715 -2.141,-2.211 -4.676,-3.926 -7.606,-5.141 -2.93,-1.285 -6.144,-1.929 -9.644,-1.929 h -12.211 v 22.179 h 17.675 c 0.575,0 1.036,0.215 1.395,0.641 0.43,0.359 0.641,0.824 0.641,1.395 v 1.5 c 0,0.57 -0.211,1.035 -0.641,1.394 -0.359,0.356 -0.82,0.535 -1.395,0.535 h -17.675 v 21.321 z" /><path
         id="path20"
         style="fill:#c9d4f9;fill-opacity:1;fill-rule:nonzero;stroke:none"
         d="m 432.941,112.617 c 0,-5.359 1,-10.394 3,-15.109 2,-4.715 4.715,-8.785 8.145,-12.215 3.5,-3.5 7.57,-6.25 12.211,-8.25 4.715,-2.07 9.75,-3.105 15.109,-3.105 5.356,0 10.356,1.035 15,3.105 4.715,2 8.821,4.75 12.321,8.25 3.5,3.43 6.25,7.5 8.25,12.215 2,4.715 3,9.75 3,15.109 0,5.356 -1,10.391 -3,15.106 -2,4.644 -4.75,8.715 -8.25,12.215 -3.5,3.429 -7.606,6.144 -12.321,8.144 -4.644,2 -9.644,3 -15,3 -5.359,0 -10.394,-1 -15.109,-3 -4.641,-2 -8.711,-4.715 -12.211,-8.144 -3.43,-3.5 -6.145,-7.571 -8.145,-12.215 -2,-4.715 -3,-9.75 -3,-15.106 z m 13.93,0 c 0,3.356 0.641,6.535 1.926,9.535 1.289,3 3.039,5.606 5.25,7.821 2.215,2.215 4.824,3.965 7.824,5.25 3,1.285 6.176,1.929 9.535,1.929 3.356,0 6.535,-0.644 9.535,-1.929 3,-1.285 5.606,-3.035 7.821,-5.25 2.285,-2.215 4.074,-4.821 5.359,-7.821 1.285,-3 1.926,-6.179 1.926,-9.535 0,-3.359 -0.641,-6.535 -1.926,-9.535 -1.285,-3 -3.074,-5.609 -5.359,-7.824 -2.215,-2.285 -4.821,-4.07 -7.821,-5.356 -3,-1.359 -6.179,-2.035 -9.535,-2.035 -3.359,0 -6.535,0.676 -9.535,2.035 -3,1.286 -5.609,3.071 -7.824,5.356 -2.211,2.215 -3.961,4.824 -5.25,7.824 -1.285,3 -1.926,6.176 -1.926,9.535 z m 11.356,-45.75 c -0.43,-0.574 -0.536,-1.144 -0.321,-1.715 0.285,-0.57 0.641,-0.964 1.071,-1.179 l 11.035,-8.571 c 0.929,-0.785 1.894,-0.82 2.894,-0.109 l 11.035,8.68 c 0.43,0.215 0.75,0.609 0.965,1.179 0.285,0.571 0.215,1.141 -0.215,1.715 l -2.25,3.106 c -0.429,0.5 -0.894,0.82 -1.394,0.965 -0.426,0.07 -1,-0.071 -1.711,-0.43 l -7.824,-5.035 -7.926,5.035 c -0.715,0.359 -1.324,0.5 -1.824,0.43 -0.426,-0.145 -0.856,-0.465 -1.285,-0.965 z" /><path
         id="path22"
         style="fill:#c9d4f9;fill-opacity:1;fill-rule:nonzero;stroke:none"
         d="m 591.832,77.043 c 0,-0.57 0.18,-1.035 0.535,-1.391 0.43,-0.429 0.93,-0.644 1.5,-0.644 h 9.965 c 0.57,0 1.035,0.215 1.391,0.644 0.429,0.356 0.644,0.821 0.644,1.391 v 28.395 h 34.93 V 77.043 c 0,-0.57 0.176,-1.035 0.535,-1.391 0.43,-0.429 0.93,-0.644 1.5,-0.644 h 9.856 c 0.574,0 1.035,0.215 1.394,0.644 0.43,0.356 0.641,0.821 0.641,1.391 v 70.93 c 0,0.57 -0.211,1.07 -0.641,1.5 -0.359,0.359 -0.82,0.535 -1.394,0.535 h -9.856 c -0.57,0 -1.07,-0.176 -1.5,-0.535 -0.359,-0.43 -0.535,-0.93 -0.535,-1.5 v -29.571 h -34.93 v 29.571 c 0,0.57 -0.215,1.07 -0.644,1.5 -0.356,0.359 -0.821,0.535 -1.391,0.535 h -9.965 c -0.57,0 -1.07,-0.176 -1.5,-0.535 -0.355,-0.43 -0.535,-0.93 -0.535,-1.5 z" /><path
         id="path24"
         style="fill:#c9d4f9;fill-opacity:1;fill-rule:nonzero;stroke:none"
         d="m 689.797,112.617 c 0,-5.359 1,-10.394 3,-15.109 2,-4.715 4.715,-8.785 8.144,-12.215 3.5,-3.5 7.571,-6.25 12.215,-8.25 4.715,-2.07 9.75,-3.105 15.106,-3.105 5.359,0 10.359,1.035 15,3.105 4.715,2 8.824,4.75 12.324,8.25 3.5,3.43 6.25,7.5 8.25,12.215 2,4.715 3,9.75 3,15.109 0,5.356 -1,10.391 -3,15.106 -2,4.644 -4.75,8.715 -8.25,12.215 -3.5,3.429 -7.609,6.144 -12.324,8.144 -4.641,2 -9.641,3 -15,3 -5.356,0 -10.391,-1 -15.106,-3 -4.644,-2 -8.715,-4.715 -12.215,-8.144 -3.429,-3.5 -6.144,-7.571 -8.144,-12.215 -2,-4.715 -3,-9.75 -3,-15.106 z m 13.93,0 c 0,3.356 0.644,6.535 1.929,9.535 1.285,3 3.035,5.606 5.25,7.821 2.215,2.215 4.821,3.965 7.821,5.25 3,1.285 6.179,1.929 9.535,1.929 3.359,0 6.535,-0.644 9.535,-1.929 3,-1.285 5.609,-3.035 7.824,-5.25 2.285,-2.215 4.07,-4.821 5.356,-7.821 1.285,-3 1.929,-6.179 1.929,-9.535 0,-3.359 -0.644,-6.535 -1.929,-9.535 -1.286,-3 -3.071,-5.609 -5.356,-7.824 -2.215,-2.285 -4.824,-4.07 -7.824,-5.356 -3,-1.359 -6.176,-2.035 -9.535,-2.035 -3.356,0 -6.535,0.676 -9.535,2.035 -3,1.286 -5.606,3.071 -7.821,5.356 -2.215,2.215 -3.965,4.824 -5.25,7.824 -1.285,3 -1.929,6.176 -1.929,9.535 z" /><path
         id="path26"
         style="fill:#c9d4f9;fill-opacity:1;fill-rule:nonzero;stroke:none"
         d="m 793.039,150.008 c -0.789,0 -1.394,-0.285 -1.824,-0.856 -0.356,-0.57 -0.356,-1.214 0,-1.929 l 33.324,-72.106 c 0.356,-0.785 0.961,-1.179 1.82,-1.179 h 1.071 c 0.57,0 0.965,0.105 1.179,0.32 0.286,0.215 0.5,0.5 0.641,0.859 l 33,72.106 c 0.359,0.715 0.324,1.359 -0.105,1.929 -0.356,0.571 -0.93,0.856 -1.715,0.856 h -9.321 c -0.785,0 -1.429,-0.141 -1.929,-0.426 -0.43,-0.359 -0.821,-0.93 -1.18,-1.715 l -5.25,-11.574 h -32.035 l -5.25,11.574 c -0.215,0.571 -0.57,1.071 -1.07,1.5 -0.5,0.426 -1.18,0.641 -2.036,0.641 z m 44.461,-25.606 -10.711,-23.57 h -0.324 l -10.5,23.57 z" /></g></g></svg>