<?xml version="1.0" encoding="UTF-8" standalone="no"?>
<!-- Created with Inkscape (http://www.inkscape.org/) -->

<svg
   xmlns:dc="http://purl.org/dc/elements/1.1/"
   xmlns:cc="http://creativecommons.org/ns#"
   xmlns:rdf="http://www.w3.org/1999/02/22-rdf-syntax-ns#"
   xmlns:svg="http://www.w3.org/2000/svg"
   xmlns="http://www.w3.org/2000/svg"
   xmlns:sodipodi="http://sodipodi.sourceforge.net/DTD/sodipodi-0.dtd"
   xmlns:inkscape="http://www.inkscape.org/namespaces/inkscape"
   width="7.9375mm"
   height="7.9375mm"
   viewBox="0 0 7.9375 7.9375"
   version="1.1"
   id="svg4469"
   inkscape:version="0.92.4 (5da689c313, 2019-01-14)"
   sodipodi:docname="pinterest.svg">
  <defs
     id="defs4463" />
  <sodipodi:namedview
     id="base"
     pagecolor="#ffffff"
     bordercolor="#666666"
     borderopacity="1.0"
     inkscape:pageopacity="0.0"
     inkscape:pageshadow="2"
     inkscape:zoom="1.4"
     inkscape:cx="-59.183919"
     inkscape:cy="-27.85091"
     inkscape:document-units="mm"
     inkscape:current-layer="layer1"
     showgrid="false"
     fit-margin-top="0"
     fit-margin-left="0"
     fit-margin-right="0"
     fit-margin-bottom="0"
     inkscape:window-width="1366"
     inkscape:window-height="745"
     inkscape:window-x="-8"
     inkscape:window-y="-8"
     inkscape:window-maximized="1" />
  <metadata
     id="metadata4466">
    <rdf:RDF>
      <cc:Work
         rdf:about="">
        <dc:format>image/svg+xml</dc:format>
        <dc:type
           rdf:resource="http://purl.org/dc/dcmitype/StillImage" />
        <dc:title></dc:title>
      </cc:Work>
    </rdf:RDF>
  </metadata>
  <g
     inkscape:label="Layer 1"
     inkscape:groupmode="layer"
     id="layer1"
     transform="translate(-69.358627,-114.62649)">
    <rect
       style="display:inline;opacity:1;vector-effect:none;fill:#7096c6;fill-opacity:1;stroke:none;stroke-width:15.94209862;stroke-linecap:butt;stroke-linejoin:miter;stroke-miterlimit:4;stroke-dasharray:none;stroke-dashoffset:0;stroke-opacity:1;paint-order:markers stroke fill"
       id="rect4040"
       width="7.9375"
       height="7.9375"
       x="69.358627"
       y="114.62649"
       rx="1.984375"
       ry="1.8520833" />
    <path
       inkscape:connector-curvature="0"
       id="path4042"
       d="m 73.44675,116.11341 c -1.39221,0 -2.09753,0.96978 -2.09753,1.77612 0,0.49137 0.18894,0.92606 0.5984,1.08985 0.063,0.0315 0.12579,6e-5 0.14471,-0.0692 0.0189,-0.0504 0.0504,-0.17646 0.063,-0.22686 0.0189,-0.0693 0.0127,-0.0941 -0.0439,-0.1571 -0.11967,-0.13859 -0.19532,-0.31501 -0.19532,-0.56069 0,-0.71815 0.56076,-1.36116 1.44899,-1.36116 0.78746,0 1.22217,0.4662 1.22217,1.08986 0,0.81895 -0.37791,1.51205 -0.93226,1.51205 -0.30867,0 -0.54171,-0.24539 -0.46612,-0.54777 0.0882,-0.35908 0.25786,-0.74993 0.25786,-1.0082 0,-0.23309 -0.13229,-0.4284 -0.39687,-0.4284 -0.31499,0 -0.5669,0.31483 -0.5669,0.7369 0,0.26458 0.0946,0.44752 0.0946,0.44752 0,0 -0.32107,1.3167 -0.37777,1.54978 -0.10679,0.45988 -0.0122,1.02695 -0.006,1.08365 0.006,0.0378 0.0503,0.0438 0.0692,0.0186 0.0252,-0.0378 0.40317,-0.48497 0.52917,-0.93225 0.0378,-0.12599 0.20775,-0.78135 0.20775,-0.78135 0.10078,0.189 0.4033,0.35296 0.71829,0.35296 0.94493,0 1.58149,-0.83153 1.5875,-1.95286 0,-0.84414 -0.73748,-1.63142 -1.85881,-1.63142 z"
       style="display:inline;opacity:1;vector-effect:none;fill:#ffffff;fill-opacity:1;stroke:none;stroke-width:0.26458332;stroke-linecap:round;stroke-linejoin:round;stroke-miterlimit:4;stroke-dasharray:none;stroke-dashoffset:0;stroke-opacity:1;paint-order:markers stroke fill" />
  </g>
</svg>
