<?xml version="1.0" encoding="UTF-8" standalone="no"?>
<!-- Created with Inkscape (http://www.inkscape.org/) -->

<svg
   xmlns:dc="http://purl.org/dc/elements/1.1/"
   xmlns:cc="http://creativecommons.org/ns#"
   xmlns:rdf="http://www.w3.org/1999/02/22-rdf-syntax-ns#"
   xmlns:svg="http://www.w3.org/2000/svg"
   xmlns="http://www.w3.org/2000/svg"
   xmlns:sodipodi="http://sodipodi.sourceforge.net/DTD/sodipodi-0.dtd"
   xmlns:inkscape="http://www.inkscape.org/namespaces/inkscape"
   width="11.791751mm"
   height="11.849848mm"
   viewBox="0 0 11.791751 11.849848"
   version="1.1"
   id="svg2146"
   inkscape:version="0.92.4 (5da689c313, 2019-01-14)"
   sodipodi:docname="skype.svg">
  <defs
     id="defs2140">
    <filter
       inkscape:collect="always"
       style="color-interpolation-filters:sRGB"
       id="filter2037"
       x="-0.060165595"
       width="1.1203312"
       y="-0.059835315"
       height="1.1196706">
      <feGaussianBlur
         inkscape:collect="always"
         stdDeviation="1.5143338"
         id="feGaussianBlur2039" />
    </filter>
  </defs>
  <sodipodi:namedview
     id="base"
     pagecolor="#ffffff"
     bordercolor="#666666"
     borderopacity="1.0"
     inkscape:pageopacity="0.0"
     inkscape:pageshadow="2"
     inkscape:zoom="7.9195959"
     inkscape:cx="43.872578"
     inkscape:cy="15.344721"
     inkscape:document-units="mm"
     inkscape:current-layer="layer1"
     showgrid="false"
     fit-margin-top="0"
     fit-margin-left="0"
     fit-margin-right="0"
     fit-margin-bottom="0"
     inkscape:window-width="1366"
     inkscape:window-height="743"
     inkscape:window-x="0"
     inkscape:window-y="25"
     inkscape:window-maximized="1" />
  <metadata
     id="metadata2143">
    <rdf:RDF>
      <cc:Work
         rdf:about="">
        <dc:format>image/svg+xml</dc:format>
        <dc:type
           rdf:resource="http://purl.org/dc/dcmitype/StillImage" />
        <dc:title></dc:title>
      </cc:Work>
    </rdf:RDF>
  </metadata>
  <g
     inkscape:label="Layer 1"
     inkscape:groupmode="layer"
     id="layer1"
     transform="translate(12.699449,-104.35484)">
    <g
       style="display:inline"
       id="g3034"
       transform="translate(-355.02575,-56.408776)">
      <g
         style="opacity:0.2;fill:#000000;fill-opacity:1;fill-rule:evenodd;stroke:none;stroke-width:1;filter:url(#filter2037)"
         transform="matrix(0.17423974,0,0,0.17423974,344.68038,159.14792)"
         id="g3022">
        <g
           style="fill:#000000;fill-opacity:1;fill-rule:nonzero"
           id="g3020"
           transform="translate(-1)">
          <path
             sodipodi:nodetypes="ccsccscsccsc"
             style="fill:#000000;fill-opacity:1"
             inkscape:connector-curvature="0"
             d="m 49.309977,48.247264 c 0.288244,-1.651019 0.432121,-3.324009 0.43,-5 0.0353,-8.418879 -3.663875,-16.420128 -10.100371,-21.84694 -6.436496,-5.426812 -14.947805,-7.720602 -23.239629,-6.26306 -2.548609,-1.467368 -5.439161,-2.236572 -8.38,-2.23 -6.0364,0.03688 -11.6005186,3.272072 -14.6187025,8.499888 -3.018184,5.227815 -3.0377087,11.664081 -0.051298,16.910112 -1.666395,9.156339 1.2526324,18.548689 7.815525,25.147466 6.562893,6.598777 15.9391845,9.568976 25.1044745,7.952534 2.545491,1.466109 5.432489,2.235286 8.37,2.23 6.03333,-0.03887 11.59404,-3.272689 14.611586,-8.497342 3.017545,-5.224653 3.039776,-11.657273 0.05841,-16.902658"
             id="path3018" />
        </g>
      </g>
      <g
         id="g3032">
        <g
           style="fill:#7096c6;fill-opacity:1;fill-rule:evenodd;stroke:none;stroke-width:1"
           transform="matrix(0.17423974,0,0,0.17423974,344.68038,158.61875)"
           id="g3028">
          <g
             style="fill:#7096c6;fill-opacity:1;fill-rule:nonzero"
             id="g3026"
             transform="translate(-1)">
            <path
               sodipodi:nodetypes="ccsccscsccsc"
               style="fill:#7096c6;fill-opacity:1"
               inkscape:connector-curvature="0"
               d="m 49.309977,48.247264 c 0.288244,-1.651019 0.432121,-3.324009 0.43,-5 0.0353,-8.418879 -3.663875,-16.420128 -10.100371,-21.84694 -6.436496,-5.426812 -14.947805,-7.720602 -23.239629,-6.26306 -2.548609,-1.467368 -5.439161,-2.236572 -8.38,-2.23 -6.0364,0.03688 -11.6005186,3.272072 -14.6187025,8.499888 -3.018184,5.227815 -3.0377087,11.664081 -0.051298,16.910112 -1.666395,9.156339 1.2526324,18.548689 7.815525,25.147466 6.562893,6.598777 15.9391845,9.568976 25.1044745,7.952534 2.545491,1.466109 5.432489,2.235286 8.37,2.23 6.03333,-0.03887 11.59404,-3.272689 14.611586,-8.497342 3.017545,-5.224653 3.039776,-11.657273 0.05841,-16.902658"
               id="path3024" />
          </g>
        </g>
        <path
           inkscape:connector-curvature="0"
           id="path3030"
           transform="matrix(0.26458334,0,0,0.26458334,3.4472655e-6,-5.291667)"
           d="m 1315.7676,635.96875 c -4.4386,0 -9.1016,1.84426 -9.1016,6.94141 0,2.45635 0.8305,5.10273 5.5918,6.31445 l 5.9258,1.49609 c 1.7912,0.42146 2.3184,1.47455 2.3184,2.39649 0,1.53441 -1.5935,3.16797 -4.3067,3.16797 -5.3078,0 -4.5633,-4.26758 -7.4082,-4.26758 -0.5914,-0.0326 -1.1717,0.1785 -1.6016,0.58594 -0.4298,0.40743 -0.6727,0.97411 -0.6718,1.5664 0,2.4827 3.0369,5.86914 9.6816,5.86914 6.3167,-0.003 9.5215,-3.20326 9.5215,-7.34375 0,-2.69344 -1.2761,-5.5059 -6.0703,-6.58593 l -4.3731,-0.98633 c -1.6595,-0.3622 -3.5507,-0.90242 -3.5507,-2.4961 0,-1.59367 1.2789,-2.73437 3.7089,-2.73437 4.8864,0 4.4782,3.41211 6.9082,3.41211 1.2776,0 2.377,-0.7044 2.377,-2.02149 0,-3.05567 -4.8597,-5.31445 -8.9492,-5.31445 z"
           style="opacity:1;vector-effect:none;fill:#ffffff;fill-opacity:1;stroke:none;stroke-width:0.41088286;stroke-linecap:round;stroke-linejoin:round;stroke-miterlimit:4;stroke-dasharray:none;stroke-dashoffset:0;stroke-opacity:1;paint-order:fill markers stroke" />
      </g>
    </g>
  </g>
</svg>
