<?xml version="1.0" encoding="UTF-8" standalone="no"?>
<!-- Created with Inkscape (http://www.inkscape.org/) -->

<svg
   xmlns:dc="http://purl.org/dc/elements/1.1/"
   xmlns:cc="http://creativecommons.org/ns#"
   xmlns:rdf="http://www.w3.org/1999/02/22-rdf-syntax-ns#"
   xmlns:svg="http://www.w3.org/2000/svg"
   xmlns="http://www.w3.org/2000/svg"
   xmlns:sodipodi="http://sodipodi.sourceforge.net/DTD/sodipodi-0.dtd"
   xmlns:inkscape="http://www.inkscape.org/namespaces/inkscape"
   width="7.9375mm"
   height="7.9375mm"
   viewBox="0 0 7.9375 7.9375"
   version="1.1"
   id="svg4469"
   inkscape:version="0.92.4 (5da689c313, 2019-01-14)"
   sodipodi:docname="twitter.svg">
  <defs
     id="defs4463" />
  <sodipodi:namedview
     id="base"
     pagecolor="#ffffff"
     bordercolor="#666666"
     borderopacity="1.0"
     inkscape:pageopacity="0.0"
     inkscape:pageshadow="2"
     inkscape:zoom="1.4"
     inkscape:cx="-59.183919"
     inkscape:cy="-27.85091"
     inkscape:document-units="mm"
     inkscape:current-layer="layer1"
     showgrid="false"
     fit-margin-top="0"
     fit-margin-left="0"
     fit-margin-right="0"
     fit-margin-bottom="0"
     inkscape:window-width="1366"
     inkscape:window-height="745"
     inkscape:window-x="-8"
     inkscape:window-y="-8"
     inkscape:window-maximized="1" />
  <metadata
     id="metadata4466">
    <rdf:RDF>
      <cc:Work
         rdf:about="">
        <dc:format>image/svg+xml</dc:format>
        <dc:type
           rdf:resource="http://purl.org/dc/dcmitype/StillImage" />
        <dc:title></dc:title>
      </cc:Work>
    </rdf:RDF>
  </metadata>
  <g
     inkscape:label="Layer 1"
     inkscape:groupmode="layer"
     id="layer1"
     transform="translate(-69.358627,-114.62649)">
    <g
       id="g5056"
       transform="translate(-6.8035739,-20.410711)">
      <rect
         style="display:inline;opacity:1;vector-effect:none;fill:#7096c6;fill-opacity:1;stroke:none;stroke-width:15.94209862;stroke-linecap:butt;stroke-linejoin:miter;stroke-miterlimit:4;stroke-dasharray:none;stroke-dashoffset:0;stroke-opacity:1;paint-order:markers stroke fill"
         id="rect4030"
         width="7.9375"
         height="7.9375"
         x="76.162201"
         y="135.0372"
         rx="1.984375"
         ry="1.8520833" />
      <g
         id="g4046"
         transform="matrix(0.16536459,0,0,0.16536459,76.210794,135.06996)"
         style="display:inline">
        <path
           id="path4044"
           d="m 36.8,15.4 c -0.9,0.5 -2,0.8 -3,0.9 1.1,-0.7 1.9,-1.8 2.3,-3.1 -1,0.6 -2.1,1.1 -3.4,1.4 -1,-1.1 -2.3,-1.8 -3.8,-1.8 -2.9,0 -5.3,2.5 -5.3,5.7 0,0.4 0,0.9 0.1,1.3 -4.4,-0.2 -8.3,-2.5 -10.9,-5.9 -0.5,0.8 -0.7,1.8 -0.7,2.9 0,2 0.9,3.7 2.3,4.7 -0.9,0 -1.7,-0.3 -2.4,-0.7 0,0 0,0.1 0,0.1 0,2.7 1.8,5 4.2,5.6 -0.4,0.1 -0.9,0.2 -1.4,0.2 -0.3,0 -0.7,0 -1,-0.1 0.7,2.3 2.6,3.9 4.9,3.9 -1.8,1.5 -4.1,2.4 -6.5,2.4 -0.4,0 -0.8,0 -1.3,-0.1 2.3,1.6 5.1,2.6 8.1,2.6 9.7,0 15,-8.6 15,-16.1 0,-0.2 0,-0.5 0,-0.7 1.2,-1 2.1,-2 2.8,-3.2 z"
           inkscape:connector-curvature="0"
           style="fill:#ffffff" />
      </g>
    </g>
  </g>
</svg>
